<svg width="25" height="25" viewBox="0 0 25 25" fill="none" xmlns="http://www.w3.org/2000/svg">
<path id="id" d="M20.8333 9.89581V7.08331C20.8333 5.33315 20.8333 4.45807 20.4927 3.78959C20.1931 3.20159 19.715 2.72352 19.127 2.42392C18.4585 2.08331 17.5835 2.08331 15.8333 2.08331H9.16663C7.41646 2.08331 6.54138 2.08331 5.87291 2.42392C5.2849 2.72352 4.80683 3.20159 4.50723 3.78959C4.16663 4.45807 4.16663 5.33315 4.16663 7.08331V17.9166C4.16663 19.6668 4.16663 20.5419 4.50723 21.2104C4.80683 21.7984 5.2849 22.2764 5.87291 22.576C6.54138 22.9166 7.41646 22.9166 9.16663 22.9166H14.5833M14.5833 11.4583H8.33329M10.4166 15.625H8.33329M16.6666 7.29165H8.33329M17.1875 15.6273C17.371 15.1056 17.7333 14.6656 18.2101 14.3854C18.6869 14.1051 19.2476 14.0027 19.7927 14.0962C20.3378 14.1897 20.8323 14.4731 21.1884 14.8962C21.5446 15.3194 21.7396 15.8549 21.7388 16.408C21.7388 17.9693 19.3968 18.75 19.3968 18.75M19.4269 21.875H19.4374" stroke="#F0EFF4" stroke-width="2" stroke-linecap="round" stroke-linejoin="round"/>
</svg>
