<svg width="25" height="25" viewBox="0 0 25 25" fill="none" xmlns="http://www.w3.org/2000/svg">
<path id="id" d="M21.875 10.4166H3.125M16.6667 2.08331V6.24998M8.33333 2.08331V6.24998M8.125 22.9166H16.875C18.6252 22.9166 19.5002 22.9166 20.1687 22.576C20.7567 22.2764 21.2348 21.7984 21.5344 21.2104C21.875 20.5419 21.875 19.6668 21.875 17.9166V9.16665C21.875 7.41648 21.875 6.5414 21.5344 5.87293C21.2348 5.28492 20.7567 4.80686 20.1687 4.50725C19.5002 4.16665 18.6252 4.16665 16.875 4.16665H8.125C6.37484 4.16665 5.49975 4.16665 4.83128 4.50725C4.24327 4.80686 3.76521 5.28492 3.4656 5.87293C3.125 6.5414 3.125 7.41648 3.125 9.16665V17.9166C3.125 19.6668 3.125 20.5419 3.4656 21.2104C3.76521 21.7984 4.24327 22.2764 4.83128 22.576C5.49975 22.9166 6.37484 22.9166 8.125 22.9166Z" stroke="#F0EFF4" stroke-width="2" stroke-linecap="round" stroke-linejoin="round"/>
</svg>
