<svg width="25" height="25" viewBox="0 0 25 25" fill="none" xmlns="http://www.w3.org/2000/svg">
<path id="id" d="M7.81217 11.4583H4.79134C4.20795 11.4583 3.91626 11.4583 3.69343 11.5719C3.49743 11.6717 3.33808 11.8311 3.23821 12.0271C3.12467 12.2499 3.12467 12.5416 3.12467 13.125V21.875M17.1872 11.4583H20.208C20.7914 11.4583 21.0831 11.4583 21.3059 11.5719C21.5019 11.6717 21.6613 11.8311 21.7611 12.0271C21.8747 12.2499 21.8747 12.5416 21.8747 13.125V21.875M17.1872 21.875V6.45833C17.1872 5.29156 17.1872 4.70817 16.9601 4.26252C16.7604 3.87052 16.4417 3.55181 16.0497 3.35207C15.604 3.125 15.0206 3.125 13.8538 3.125H11.1455C9.97873 3.125 9.39534 3.125 8.94969 3.35207C8.55769 3.55181 8.23898 3.87052 8.03924 4.26252C7.81217 4.70817 7.81217 5.29156 7.81217 6.45833V21.875M22.9163 21.875H2.08301M11.458 7.29167H13.5413M11.458 11.4583H13.5413M11.458 15.625H13.5413" stroke="#F0EFF4" stroke-width="2" stroke-linecap="round" stroke-linejoin="round"/>
</svg>
