<svg width="25" height="25" viewBox="0 0 25 25" fill="none" xmlns="http://www.w3.org/2000/svg">
<path id="id" d="M16.6667 17.7083L21.875 12.5M21.875 12.5L16.6667 7.29167M21.875 12.5H9.375M12.5 17.7083C12.5 18.6771 12.5 19.1614 12.3935 19.5588C12.1046 20.6372 11.2622 21.4796 10.1838 21.7685C9.78641 21.875 9.30205 21.875 8.33333 21.875H7.8125C6.35643 21.875 5.6284 21.875 5.05411 21.6371C4.2884 21.32 3.68005 20.7116 3.36288 19.9459C3.125 19.3716 3.125 18.6436 3.125 17.1875V7.8125C3.125 6.35643 3.125 5.6284 3.36288 5.05411C3.68005 4.2884 4.2884 3.68004 5.05412 3.36288C5.6284 3.125 6.35643 3.125 7.8125 3.125H8.33333C9.30205 3.125 9.78641 3.125 10.1838 3.23148C11.2622 3.52044 12.1046 4.36278 12.3935 5.44119C12.5 5.83859 12.5 6.32295 12.5 7.29167" stroke="#F0EFF4" stroke-width="2" stroke-linecap="round" stroke-linejoin="round"/>
</svg>
