<svg width="25" height="25" viewBox="0 0 25 25" fill="none" xmlns="http://www.w3.org/2000/svg">
<path id="id" d="M20.8337 13.0208V7.08331C20.8337 5.33315 20.8337 4.45807 20.4931 3.78959C20.1935 3.20159 19.7154 2.72352 19.1274 2.42392C18.4589 2.08331 17.5838 2.08331 15.8337 2.08331H9.16699C7.41683 2.08331 6.54175 2.08331 5.87327 2.42392C5.28527 2.72352 4.8072 3.20159 4.5076 3.78959C4.16699 4.45807 4.16699 5.33315 4.16699 7.08331V17.9166C4.16699 19.6668 4.16699 20.5419 4.5076 21.2104C4.8072 21.7984 5.28527 22.2764 5.87327 22.576C6.54175 22.9166 7.41683 22.9166 9.16699 22.9166H12.5003M14.5837 11.4583H8.33366M10.417 15.625H8.33366M16.667 7.29165H8.33366M15.1045 19.7916L17.1878 21.875L21.8753 17.1875" stroke="#F0EFF4" stroke-width="2" stroke-linecap="round" stroke-linejoin="round"/>
</svg>
