<svg width="25" height="25" viewBox="0 0 25 25" fill="none" xmlns="http://www.w3.org/2000/svg">
<path id="id" d="M22.9167 21.875V19.7917C22.9167 17.8502 21.5888 16.2188 19.7917 15.7563M16.1459 3.42787C17.6729 4.04599 18.75 5.54303 18.75 7.29167C18.75 9.0403 17.6729 10.5373 16.1459 11.1555M17.7084 21.875C17.7084 19.9336 17.7084 18.9629 17.3912 18.1972C16.9683 17.1762 16.1572 16.3651 15.1362 15.9422C14.3705 15.625 13.3998 15.625 11.4584 15.625H8.33337C6.39195 15.625 5.42124 15.625 4.65553 15.9422C3.63458 16.3651 2.82343 17.1762 2.40054 18.1972C2.08337 18.9629 2.08337 19.9336 2.08337 21.875M14.0625 7.29167C14.0625 9.59285 12.1971 11.4583 9.89587 11.4583C7.59469 11.4583 5.72921 9.59285 5.72921 7.29167C5.72921 4.99048 7.59469 3.125 9.89587 3.125C12.1971 3.125 14.0625 4.99048 14.0625 7.29167Z" stroke="#F0EFF4" stroke-width="2" stroke-linecap="round" stroke-linejoin="round"/>
</svg>
